<svg xmlns="http://www.w3.org/2000/svg" xmlns:xlink="http://www.w3.org/1999/xlink" width="50" zoomAndPan="magnify" viewBox="0 0 37.5 37.499999" height="50" preserveAspectRatio="xMidYMid meet" version="1.0"><defs><filter x="0%" y="0%" width="100%" height="100%" id="a018ab6675"><feColorMatrix values="0 0 0 0 1 0 0 0 0 1 0 0 0 0 1 0 0 0 1 0" color-interpolation-filters="sRGB"/></filter><mask id="0d7033bd3c"><g filter="url(#a018ab6675)"><rect x="-3.75" width="45" fill="#000000" y="-3.75" height="44.999999" fill-opacity="0.35"/></g></mask><clipPath id="f8f7980f9e"><path d="M 0.894531 0.789062 L 34.078125 0.789062 L 34.078125 32.078125 L 0.894531 32.078125 Z M 0.894531 0.789062 " clip-rule="nonzero"/></clipPath><clipPath id="06b0c8f52e"><path d="M 6.910156 0.820312 L 28.09375 0.820312 C 29.664062 0.820312 31.171875 1.441406 32.28125 2.554688 C 33.390625 3.664062 34.015625 5.167969 34.015625 6.738281 L 34.015625 26.15625 C 34.015625 27.726562 33.390625 29.230469 32.28125 30.34375 C 31.171875 31.453125 29.664062 32.078125 28.09375 32.078125 L 6.910156 32.078125 C 5.339844 32.078125 3.835938 31.453125 2.726562 30.34375 C 1.613281 29.230469 0.992188 27.726562 0.992188 26.15625 L 0.992188 6.738281 C 0.992188 5.167969 1.613281 3.664062 2.726562 2.554688 C 3.835938 1.441406 5.339844 0.820312 6.910156 0.820312 Z M 6.910156 0.820312 " clip-rule="nonzero"/></clipPath><clipPath id="41416db2fb"><path d="M 0.894531 0.789062 L 34 0.789062 L 34 32.078125 L 0.894531 32.078125 Z M 0.894531 0.789062 " clip-rule="nonzero"/></clipPath><clipPath id="9439d21c82"><path d="M 6.910156 0.820312 L 28.09375 0.820312 C 29.664062 0.820312 31.171875 1.441406 32.28125 2.554688 C 33.390625 3.664062 34.015625 5.167969 34.015625 6.738281 L 34.015625 26.15625 C 34.015625 27.726562 33.390625 29.230469 32.28125 30.34375 C 31.171875 31.453125 29.664062 32.078125 28.09375 32.078125 L 6.910156 32.078125 C 5.339844 32.078125 3.835938 31.453125 2.726562 30.34375 C 1.613281 29.230469 0.992188 27.726562 0.992188 26.15625 L 0.992188 6.738281 C 0.992188 5.167969 1.613281 3.664062 2.726562 2.554688 C 3.835938 1.441406 5.339844 0.820312 6.910156 0.820312 Z M 6.910156 0.820312 " clip-rule="nonzero"/></clipPath><clipPath id="d963acf381"><rect x="0" width="35" y="0" height="33"/></clipPath><clipPath id="8c7f27e2e7"><rect x="0" width="35" y="0" height="33"/></clipPath><clipPath id="629af5b6e1"><path d="M 0.574219 24.265625 L 6.980469 24.265625 L 6.980469 26.503906 L 0.574219 26.503906 Z M 0.574219 24.265625 " clip-rule="nonzero"/></clipPath><clipPath id="b2a01e2e72"><path d="M 0.574219 19.789062 L 6.980469 19.789062 L 6.980469 24.265625 L 0.574219 24.265625 Z M 0.574219 19.789062 " clip-rule="nonzero"/></clipPath><clipPath id="1c1d457213"><path d="M 10.425781 20.535156 L 16.832031 20.535156 L 16.832031 26.503906 L 10.425781 26.503906 Z M 10.425781 20.535156 " clip-rule="nonzero"/></clipPath><clipPath id="57cc3053e2"><path d="M 10.425781 10.089844 L 16.832031 10.089844 L 16.832031 20.535156 L 10.425781 20.535156 Z M 10.425781 10.089844 " clip-rule="nonzero"/></clipPath><clipPath id="79c1fce74d"><path d="M 20.28125 14.566406 L 26.683594 14.566406 L 26.683594 26.503906 L 20.28125 26.503906 Z M 20.28125 14.566406 " clip-rule="nonzero"/></clipPath><clipPath id="5a733c8e54"><path d="M 20.28125 1.136719 L 26.683594 1.136719 L 26.683594 14.566406 L 20.28125 14.566406 Z M 20.28125 1.136719 " clip-rule="nonzero"/></clipPath><clipPath id="dac90fdfef"><rect x="0" width="28" y="0" height="29"/></clipPath></defs><g mask="url(#0d7033bd3c)"><g transform="matrix(1, 0, 0, 1, 1, 3)"><g clip-path="url(#8c7f27e2e7)"><g clip-path="url(#f8f7980f9e)"><g clip-path="url(#06b0c8f52e)"><g><g clip-path="url(#d963acf381)"><g clip-path="url(#41416db2fb)"><g clip-path="url(#9439d21c82)"><path fill="#f3f4f7" d="M 0.992188 0.820312 L 33.957031 0.820312 L 33.957031 32.078125 L 0.992188 32.078125 Z M 0.992188 0.820312 " fill-opacity="1" fill-rule="nonzero"/></g></g></g></g></g></g></g></g></g><g transform="matrix(1, 0, 0, 1, 4, 6)"><g clip-path="url(#dac90fdfef)"><g clip-path="url(#629af5b6e1)"><path fill="#fff" d="M 1.824219 19.789062 L 5.730469 19.789062 C 5.894531 19.789062 6.054688 19.820312 6.207031 19.882812 C 6.359375 19.945312 6.496094 20.039062 6.613281 20.15625 C 6.730469 20.273438 6.820312 20.40625 6.882812 20.558594 C 6.945312 20.710938 6.980469 20.871094 6.980469 21.039062 L 6.980469 26.503906 C 6.980469 26.667969 6.945312 26.828125 6.882812 26.980469 C 6.820312 27.132812 6.730469 27.269531 6.613281 27.386719 C 6.496094 27.503906 6.359375 27.59375 6.207031 27.65625 C 6.054688 27.71875 5.894531 27.75 5.730469 27.75 L 1.824219 27.75 C 1.65625 27.75 1.5 27.71875 1.34375 27.65625 C 1.191406 27.59375 1.058594 27.503906 0.941406 27.386719 C 0.824219 27.269531 0.734375 27.132812 0.667969 26.980469 C 0.605469 26.828125 0.574219 26.667969 0.574219 26.503906 L 0.574219 21.039062 C 0.574219 20.871094 0.605469 20.710938 0.667969 20.558594 C 0.734375 20.40625 0.824219 20.273438 0.941406 20.15625 C 1.058594 20.039062 1.191406 19.945312 1.34375 19.882812 C 1.5 19.820312 1.65625 19.789062 1.824219 19.789062 Z M 1.824219 19.789062 " fill-opacity="1" fill-rule="nonzero"/></g><g clip-path="url(#b2a01e2e72)"><path fill="#fff" d="M 1.824219 19.789062 L 5.730469 19.789062 C 5.894531 19.789062 6.054688 19.820312 6.207031 19.882812 C 6.359375 19.945312 6.496094 20.039062 6.613281 20.15625 C 6.730469 20.273438 6.820312 20.40625 6.882812 20.558594 C 6.945312 20.710938 6.980469 20.871094 6.980469 21.039062 L 6.980469 26.503906 C 6.980469 26.667969 6.945312 26.828125 6.882812 26.980469 C 6.820312 27.132812 6.730469 27.269531 6.613281 27.386719 C 6.496094 27.503906 6.359375 27.59375 6.207031 27.65625 C 6.054688 27.71875 5.894531 27.75 5.730469 27.75 L 1.824219 27.75 C 1.65625 27.75 1.5 27.71875 1.34375 27.65625 C 1.191406 27.59375 1.058594 27.503906 0.941406 27.386719 C 0.824219 27.269531 0.734375 27.132812 0.667969 26.980469 C 0.605469 26.828125 0.574219 26.667969 0.574219 26.503906 L 0.574219 21.039062 C 0.574219 20.871094 0.605469 20.710938 0.667969 20.558594 C 0.734375 20.40625 0.824219 20.273438 0.941406 20.15625 C 1.058594 20.039062 1.191406 19.945312 1.34375 19.882812 C 1.5 19.820312 1.65625 19.789062 1.824219 19.789062 Z M 1.824219 19.789062 " fill-opacity="1" fill-rule="nonzero"/></g><g clip-path="url(#1c1d457213)"><path fill="#ffffff" d="M 11.675781 10.089844 L 15.582031 10.089844 C 15.75 10.089844 15.90625 10.121094 16.0625 10.1875 C 16.214844 10.25 16.347656 10.339844 16.464844 10.457031 C 16.582031 10.574219 16.671875 10.707031 16.738281 10.863281 C 16.800781 11.015625 16.832031 11.171875 16.832031 11.339844 L 16.832031 26.503906 C 16.832031 26.667969 16.800781 26.828125 16.738281 26.980469 C 16.671875 27.132812 16.582031 27.269531 16.464844 27.386719 C 16.347656 27.503906 16.214844 27.59375 16.0625 27.65625 C 15.90625 27.71875 15.75 27.75 15.582031 27.75 L 11.675781 27.75 C 11.511719 27.75 11.351562 27.71875 11.199219 27.65625 C 11.046875 27.59375 10.910156 27.503906 10.792969 27.386719 C 10.675781 27.269531 10.585938 27.132812 10.523438 26.980469 C 10.460938 26.828125 10.425781 26.667969 10.425781 26.503906 L 10.425781 11.339844 C 10.425781 11.171875 10.460938 11.015625 10.523438 10.863281 C 10.585938 10.707031 10.675781 10.574219 10.792969 10.457031 C 10.910156 10.339844 11.046875 10.25 11.199219 10.1875 C 11.351562 10.121094 11.511719 10.089844 11.675781 10.089844 Z M 11.675781 10.089844 " fill-opacity="1" fill-rule="nonzero"/></g><g clip-path="url(#57cc3053e2)"><path fill="#ffffff" d="M 11.675781 10.089844 L 15.582031 10.089844 C 15.75 10.089844 15.90625 10.121094 16.0625 10.1875 C 16.214844 10.25 16.347656 10.339844 16.464844 10.457031 C 16.582031 10.574219 16.671875 10.707031 16.738281 10.863281 C 16.800781 11.015625 16.832031 11.171875 16.832031 11.339844 L 16.832031 26.503906 C 16.832031 26.667969 16.800781 26.828125 16.738281 26.980469 C 16.671875 27.132812 16.582031 27.269531 16.464844 27.386719 C 16.347656 27.503906 16.214844 27.59375 16.0625 27.65625 C 15.90625 27.71875 15.75 27.75 15.582031 27.75 L 11.675781 27.75 C 11.511719 27.75 11.351562 27.71875 11.199219 27.65625 C 11.046875 27.59375 10.910156 27.503906 10.792969 27.386719 C 10.675781 27.269531 10.585938 27.132812 10.523438 26.980469 C 10.460938 26.828125 10.425781 26.667969 10.425781 26.503906 L 10.425781 11.339844 C 10.425781 11.171875 10.460938 11.015625 10.523438 10.863281 C 10.585938 10.707031 10.675781 10.574219 10.792969 10.457031 C 10.910156 10.339844 11.046875 10.25 11.199219 10.1875 C 11.351562 10.121094 11.511719 10.089844 11.675781 10.089844 Z M 11.675781 10.089844 " fill-opacity="1" fill-rule="nonzero"/></g><g clip-path="url(#79c1fce74d)"><path fill="#ffffff" d="M 21.527344 1.136719 L 25.4375 1.136719 C 25.601562 1.136719 25.761719 1.171875 25.914062 1.234375 C 26.066406 1.296875 26.203125 1.386719 26.320312 1.503906 C 26.4375 1.621094 26.527344 1.757812 26.589844 1.910156 C 26.652344 2.0625 26.683594 2.222656 26.683594 2.386719 L 26.683594 26.503906 C 26.683594 26.667969 26.652344 26.828125 26.589844 26.980469 C 26.527344 27.132812 26.4375 27.269531 26.320312 27.386719 C 26.203125 27.503906 26.066406 27.59375 25.914062 27.65625 C 25.761719 27.71875 25.601562 27.75 25.4375 27.75 L 21.527344 27.75 C 21.363281 27.75 21.203125 27.71875 21.050781 27.65625 C 20.898438 27.59375 20.761719 27.503906 20.644531 27.386719 C 20.527344 27.269531 20.4375 27.132812 20.375 26.980469 C 20.3125 26.828125 20.28125 26.667969 20.28125 26.503906 L 20.28125 2.386719 C 20.28125 2.222656 20.3125 2.0625 20.375 1.910156 C 20.4375 1.757812 20.527344 1.621094 20.644531 1.503906 C 20.761719 1.386719 20.898438 1.296875 21.050781 1.234375 C 21.203125 1.171875 21.363281 1.136719 21.527344 1.136719 Z M 21.527344 1.136719 " fill-opacity="1" fill-rule="nonzero"/></g><g clip-path="url(#5a733c8e54)"><path fill="#ffffff" d="M 21.527344 1.136719 L 25.4375 1.136719 C 25.601562 1.136719 25.761719 1.171875 25.914062 1.234375 C 26.066406 1.296875 26.203125 1.386719 26.320312 1.503906 C 26.4375 1.621094 26.527344 1.757812 26.589844 1.910156 C 26.652344 2.0625 26.683594 2.222656 26.683594 2.386719 L 26.683594 26.503906 C 26.683594 26.667969 26.652344 26.828125 26.589844 26.980469 C 26.527344 27.132812 26.4375 27.269531 26.320312 27.386719 C 26.203125 27.503906 26.066406 27.59375 25.914062 27.65625 C 25.761719 27.71875 25.601562 27.75 25.4375 27.75 L 21.527344 27.75 C 21.363281 27.75 21.203125 27.71875 21.050781 27.65625 C 20.898438 27.59375 20.761719 27.503906 20.644531 27.386719 C 20.527344 27.269531 20.4375 27.132812 20.375 26.980469 C 20.3125 26.828125 20.28125 26.667969 20.28125 26.503906 L 20.28125 2.386719 C 20.28125 2.222656 20.3125 2.0625 20.375 1.910156 C 20.4375 1.757812 20.527344 1.621094 20.644531 1.503906 C 20.761719 1.386719 20.898438 1.296875 21.050781 1.234375 C 21.203125 1.171875 21.363281 1.136719 21.527344 1.136719 Z M 21.527344 1.136719 " fill-opacity="1" fill-rule="nonzero"/></g></g></g></svg>