<svg width="948" height="367" viewBox="0 0 948 367" fill="none" xmlns="http://www.w3.org/2000/svg">
<path d="M203.225 321.713L203.225 61.433" stroke="#CCCCCC" stroke-width="80" stroke-linecap="round"/>
<line x1="40" y1="-40" x2="345.539" y2="-40" transform="matrix(-0.591377 0.806395 -0.612312 -0.790616 213.902 -18.7079)" stroke="white" stroke-width="80" stroke-linecap="round"/>
<line x1="40" y1="-40" x2="345.539" y2="-40" transform="matrix(-0.591377 0.806395 -0.612312 -0.790616 382.185 10.8231)" stroke="white" stroke-width="80" stroke-linecap="round"/>
<mask id="path-4-outside-1_3_3" maskUnits="userSpaceOnUse" x="394.903" y="183.292" width="553" height="61" fill="black">
<rect fill="white" x="394.903" y="183.292" width="553" height="61"/>
<path d="M396.823 187.252H441.303V200.452H414.503V209.892H437.543V222.532H414.503V242.292H396.823V187.252ZM449.622 195.092V184.292H465.542V195.092H449.622ZM449.622 242.292V200.052H465.542V242.292H449.622ZM504.823 199.092C509.73 199.092 513.41 200.452 515.863 203.172C518.316 205.892 519.543 209.812 519.543 214.932V242.292H503.623V216.852C503.623 215.039 503.143 213.599 502.183 212.532C501.276 211.412 499.97 210.852 498.263 210.852C496.29 210.852 494.69 211.492 493.463 212.772C492.236 214.052 491.623 215.625 491.623 217.492V242.292H475.703V200.052H488.743L489.783 206.452C491.436 204.212 493.596 202.425 496.263 201.092C498.983 199.759 501.836 199.092 504.823 199.092ZM549.942 199.092C556.396 199.092 561.649 200.185 565.702 202.372C569.756 204.505 571.782 207.999 571.782 212.852V229.332C571.782 230.239 571.996 230.985 572.422 231.572C572.849 232.159 573.489 232.452 574.342 232.452H577.222V241.652C577.062 241.759 576.636 241.945 575.942 242.212C575.302 242.425 574.369 242.639 573.142 242.852C571.916 243.119 570.502 243.252 568.902 243.252C565.809 243.252 563.249 242.799 561.222 241.892C559.249 240.932 557.889 239.625 557.142 237.972C555.116 239.572 552.849 240.852 550.342 241.812C547.836 242.772 544.902 243.252 541.542 243.252C531.622 243.252 526.662 239.305 526.662 231.412C526.662 227.305 527.756 224.185 529.942 222.052C532.182 219.865 535.382 218.372 539.542 217.572C543.702 216.772 549.142 216.372 555.862 216.372V214.292C555.862 212.639 555.276 211.385 554.102 210.532C552.982 209.679 551.516 209.252 549.702 209.252C548.049 209.252 546.609 209.545 545.382 210.132C544.209 210.719 543.622 211.652 543.622 212.932V213.252H527.942C527.889 212.985 527.862 212.612 527.862 212.132C527.862 208.132 529.756 204.959 533.542 202.612C537.382 200.265 542.849 199.092 549.942 199.092ZM555.862 223.892C551.329 223.892 547.969 224.399 545.782 225.412C543.649 226.372 542.582 227.679 542.582 229.332C542.582 231.999 544.396 233.332 548.022 233.332C550.102 233.332 551.916 232.772 553.462 231.652C555.062 230.532 555.862 229.145 555.862 227.492V223.892ZM611.542 199.092C616.448 199.092 620.128 200.452 622.582 203.172C625.035 205.892 626.262 209.812 626.262 214.932V242.292H610.342V216.852C610.342 215.039 609.862 213.599 608.902 212.532C607.995 211.412 606.688 210.852 604.982 210.852C603.008 210.852 601.408 211.492 600.182 212.772C598.955 214.052 598.342 215.625 598.342 217.492V242.292H582.422V200.052H595.462L596.502 206.452C598.155 204.212 600.315 202.425 602.982 201.092C605.702 199.759 608.555 199.092 611.542 199.092ZM657.621 199.092C664.555 199.092 670.155 200.585 674.421 203.572C678.741 206.505 680.901 211.012 680.901 217.092H665.461C665.461 212.292 662.848 209.892 657.621 209.892C652.395 209.892 649.781 212.905 649.781 218.932V223.492C649.781 229.465 652.501 232.452 657.941 232.452C663.381 232.452 666.101 229.999 666.101 225.092H680.901C680.901 231.225 678.741 235.785 674.421 238.772C670.155 241.759 664.555 243.252 657.621 243.252C650.208 243.252 644.395 241.385 640.181 237.652C635.968 233.919 633.861 228.425 633.861 221.172C633.861 213.919 635.968 208.425 640.181 204.692C644.395 200.959 650.208 199.092 657.621 199.092ZM710.981 199.092C718.714 199.092 724.607 200.905 728.661 204.532C732.767 208.159 734.821 213.705 734.821 221.172V223.892H703.141C703.141 226.932 703.807 229.225 705.141 230.772C706.527 232.319 708.687 233.092 711.621 233.092C714.287 233.092 716.234 232.532 717.461 231.412C718.741 230.292 719.381 228.799 719.381 226.932H734.821C734.821 232.052 732.874 236.052 728.981 238.932C725.087 241.812 719.407 243.252 711.941 243.252C704.101 243.252 698.021 241.439 693.701 237.812C689.381 234.132 687.221 228.585 687.221 221.172C687.221 213.919 689.327 208.425 693.541 204.692C697.754 200.959 703.567 199.092 710.981 199.092ZM711.621 209.252C706.607 209.252 703.807 211.625 703.221 216.372H718.741C718.741 214.185 718.101 212.452 716.821 211.172C715.594 209.892 713.861 209.252 711.621 209.252ZM743.62 187.252H788.1V200.452H761.3V209.892H784.34V222.532H761.3V242.292H743.62V187.252ZM797.044 242.292V184.292H812.964V242.292H797.044ZM844.965 199.092C852.378 199.092 858.192 200.985 862.405 204.772C866.672 208.505 868.805 213.972 868.805 221.172C868.805 228.372 866.672 233.865 862.405 237.652C858.192 241.385 852.378 243.252 844.965 243.252C837.552 243.252 831.738 241.385 827.525 237.652C823.312 233.919 821.205 228.425 821.205 221.172C821.205 213.919 823.312 208.425 827.525 204.692C831.738 200.959 837.552 199.092 844.965 199.092ZM844.965 209.892C839.738 209.892 837.125 212.905 837.125 218.932V223.492C837.125 229.465 839.738 232.452 844.965 232.452C850.245 232.452 852.885 229.465 852.885 223.492V218.932C852.885 212.905 850.245 209.892 844.965 209.892ZM914.758 242.292L908.198 218.772H907.878L901.238 242.292H885.718L870.278 200.052H887.398L893.798 225.012H894.358L900.998 200.052H916.838L923.238 225.012H923.798L930.278 200.052H945.798L930.278 242.292H914.758Z"/>
</mask>
<path d="M396.823 187.252H441.303V200.452H414.503V209.892H437.543V222.532H414.503V242.292H396.823V187.252ZM449.622 195.092V184.292H465.542V195.092H449.622ZM449.622 242.292V200.052H465.542V242.292H449.622ZM504.823 199.092C509.73 199.092 513.41 200.452 515.863 203.172C518.316 205.892 519.543 209.812 519.543 214.932V242.292H503.623V216.852C503.623 215.039 503.143 213.599 502.183 212.532C501.276 211.412 499.97 210.852 498.263 210.852C496.29 210.852 494.69 211.492 493.463 212.772C492.236 214.052 491.623 215.625 491.623 217.492V242.292H475.703V200.052H488.743L489.783 206.452C491.436 204.212 493.596 202.425 496.263 201.092C498.983 199.759 501.836 199.092 504.823 199.092ZM549.942 199.092C556.396 199.092 561.649 200.185 565.702 202.372C569.756 204.505 571.782 207.999 571.782 212.852V229.332C571.782 230.239 571.996 230.985 572.422 231.572C572.849 232.159 573.489 232.452 574.342 232.452H577.222V241.652C577.062 241.759 576.636 241.945 575.942 242.212C575.302 242.425 574.369 242.639 573.142 242.852C571.916 243.119 570.502 243.252 568.902 243.252C565.809 243.252 563.249 242.799 561.222 241.892C559.249 240.932 557.889 239.625 557.142 237.972C555.116 239.572 552.849 240.852 550.342 241.812C547.836 242.772 544.902 243.252 541.542 243.252C531.622 243.252 526.662 239.305 526.662 231.412C526.662 227.305 527.756 224.185 529.942 222.052C532.182 219.865 535.382 218.372 539.542 217.572C543.702 216.772 549.142 216.372 555.862 216.372V214.292C555.862 212.639 555.276 211.385 554.102 210.532C552.982 209.679 551.516 209.252 549.702 209.252C548.049 209.252 546.609 209.545 545.382 210.132C544.209 210.719 543.622 211.652 543.622 212.932V213.252H527.942C527.889 212.985 527.862 212.612 527.862 212.132C527.862 208.132 529.756 204.959 533.542 202.612C537.382 200.265 542.849 199.092 549.942 199.092ZM555.862 223.892C551.329 223.892 547.969 224.399 545.782 225.412C543.649 226.372 542.582 227.679 542.582 229.332C542.582 231.999 544.396 233.332 548.022 233.332C550.102 233.332 551.916 232.772 553.462 231.652C555.062 230.532 555.862 229.145 555.862 227.492V223.892ZM611.542 199.092C616.448 199.092 620.128 200.452 622.582 203.172C625.035 205.892 626.262 209.812 626.262 214.932V242.292H610.342V216.852C610.342 215.039 609.862 213.599 608.902 212.532C607.995 211.412 606.688 210.852 604.982 210.852C603.008 210.852 601.408 211.492 600.182 212.772C598.955 214.052 598.342 215.625 598.342 217.492V242.292H582.422V200.052H595.462L596.502 206.452C598.155 204.212 600.315 202.425 602.982 201.092C605.702 199.759 608.555 199.092 611.542 199.092ZM657.621 199.092C664.555 199.092 670.155 200.585 674.421 203.572C678.741 206.505 680.901 211.012 680.901 217.092H665.461C665.461 212.292 662.848 209.892 657.621 209.892C652.395 209.892 649.781 212.905 649.781 218.932V223.492C649.781 229.465 652.501 232.452 657.941 232.452C663.381 232.452 666.101 229.999 666.101 225.092H680.901C680.901 231.225 678.741 235.785 674.421 238.772C670.155 241.759 664.555 243.252 657.621 243.252C650.208 243.252 644.395 241.385 640.181 237.652C635.968 233.919 633.861 228.425 633.861 221.172C633.861 213.919 635.968 208.425 640.181 204.692C644.395 200.959 650.208 199.092 657.621 199.092ZM710.981 199.092C718.714 199.092 724.607 200.905 728.661 204.532C732.767 208.159 734.821 213.705 734.821 221.172V223.892H703.141C703.141 226.932 703.807 229.225 705.141 230.772C706.527 232.319 708.687 233.092 711.621 233.092C714.287 233.092 716.234 232.532 717.461 231.412C718.741 230.292 719.381 228.799 719.381 226.932H734.821C734.821 232.052 732.874 236.052 728.981 238.932C725.087 241.812 719.407 243.252 711.941 243.252C704.101 243.252 698.021 241.439 693.701 237.812C689.381 234.132 687.221 228.585 687.221 221.172C687.221 213.919 689.327 208.425 693.541 204.692C697.754 200.959 703.567 199.092 710.981 199.092ZM711.621 209.252C706.607 209.252 703.807 211.625 703.221 216.372H718.741C718.741 214.185 718.101 212.452 716.821 211.172C715.594 209.892 713.861 209.252 711.621 209.252ZM743.62 187.252H788.1V200.452H761.3V209.892H784.34V222.532H761.3V242.292H743.62V187.252ZM797.044 242.292V184.292H812.964V242.292H797.044ZM844.965 199.092C852.378 199.092 858.192 200.985 862.405 204.772C866.672 208.505 868.805 213.972 868.805 221.172C868.805 228.372 866.672 233.865 862.405 237.652C858.192 241.385 852.378 243.252 844.965 243.252C837.552 243.252 831.738 241.385 827.525 237.652C823.312 233.919 821.205 228.425 821.205 221.172C821.205 213.919 823.312 208.425 827.525 204.692C831.738 200.959 837.552 199.092 844.965 199.092ZM844.965 209.892C839.738 209.892 837.125 212.905 837.125 218.932V223.492C837.125 229.465 839.738 232.452 844.965 232.452C850.245 232.452 852.885 229.465 852.885 223.492V218.932C852.885 212.905 850.245 209.892 844.965 209.892ZM914.758 242.292L908.198 218.772H907.878L901.238 242.292H885.718L870.278 200.052H887.398L893.798 225.012H894.358L900.998 200.052H916.838L923.238 225.012H923.798L930.278 200.052H945.798L930.278 242.292H914.758Z" fill="white"/>
<path d="M396.823 187.252V186.252H395.823V187.252H396.823ZM441.303 187.252H442.303V186.252H441.303V187.252ZM441.303 200.452V201.452H442.303V200.452H441.303ZM414.503 200.452V199.452H413.503V200.452H414.503ZM414.503 209.892H413.503V210.892H414.503V209.892ZM437.543 209.892H438.543V208.892H437.543V209.892ZM437.543 222.532V223.532H438.543V222.532H437.543ZM414.503 222.532V221.532H413.503V222.532H414.503ZM414.503 242.292V243.292H415.503V242.292H414.503ZM396.823 242.292H395.823V243.292H396.823V242.292ZM396.823 187.252V188.252H441.303V187.252V186.252H396.823V187.252ZM441.303 187.252H440.303V200.452H441.303H442.303V187.252H441.303ZM441.303 200.452V199.452H414.503V200.452V201.452H441.303V200.452ZM414.503 200.452H413.503V209.892H414.503H415.503V200.452H414.503ZM414.503 209.892V210.892H437.543V209.892V208.892H414.503V209.892ZM437.543 209.892H436.543V222.532H437.543H438.543V209.892H437.543ZM437.543 222.532V221.532H414.503V222.532V223.532H437.543V222.532ZM414.503 222.532H413.503V242.292H414.503H415.503V222.532H414.503ZM414.503 242.292V241.292H396.823V242.292V243.292H414.503V242.292ZM396.823 242.292H397.823V187.252H396.823H395.823V242.292H396.823ZM449.622 195.092H448.622V196.092H449.622V195.092ZM449.622 184.292V183.292H448.622V184.292H449.622ZM465.542 184.292H466.542V183.292H465.542V184.292ZM465.542 195.092V196.092H466.542V195.092H465.542ZM449.622 242.292H448.622V243.292H449.622V242.292ZM449.622 200.052V199.052H448.622V200.052H449.622ZM465.542 200.052H466.542V199.052H465.542V200.052ZM465.542 242.292V243.292H466.542V242.292H465.542ZM449.622 195.092H450.622V184.292H449.622H448.622V195.092H449.622ZM449.622 184.292V185.292H465.542V184.292V183.292H449.622V184.292ZM465.542 184.292H464.542V195.092H465.542H466.542V184.292H465.542ZM465.542 195.092V194.092H449.622V195.092V196.092H465.542V195.092ZM449.622 242.292H450.622V200.052H449.622H448.622V242.292H449.622ZM449.622 200.052V201.052H465.542V200.052V199.052H449.622V200.052ZM465.542 200.052H464.542V242.292H465.542H466.542V200.052H465.542ZM465.542 242.292V241.292H449.622V242.292V243.292H465.542V242.292ZM515.863 203.172L515.121 203.842L515.863 203.172ZM519.543 242.292V243.292H520.543V242.292H519.543ZM503.623 242.292H502.623V243.292H503.623V242.292ZM502.183 212.532L501.406 213.161L501.422 213.182L501.44 213.201L502.183 212.532ZM491.623 242.292V243.292H492.623V242.292H491.623ZM475.703 242.292H474.703V243.292H475.703V242.292ZM475.703 200.052V199.052H474.703V200.052H475.703ZM488.743 200.052L489.73 199.892L489.594 199.052H488.743V200.052ZM489.783 206.452L488.796 206.612L489.177 208.957L490.588 207.046L489.783 206.452ZM496.263 201.092L495.823 200.194L495.816 200.198L496.263 201.092ZM504.823 199.092V200.092C509.547 200.092 512.915 201.397 515.121 203.842L515.863 203.172L516.606 202.502C513.904 199.507 509.912 198.092 504.823 198.092V199.092ZM515.863 203.172L515.121 203.842C517.352 206.316 518.543 209.961 518.543 214.932H519.543H520.543C520.543 209.663 519.281 205.468 516.606 202.502L515.863 203.172ZM519.543 214.932H518.543V242.292H519.543H520.543V214.932H519.543ZM519.543 242.292V241.292H503.623V242.292V243.292H519.543V242.292ZM503.623 242.292H504.623V216.852H503.623H502.623V242.292H503.623ZM503.623 216.852H504.623C504.623 214.859 504.092 213.158 502.926 211.863L502.183 212.532L501.44 213.201C502.194 214.039 502.623 215.218 502.623 216.852H503.623ZM502.183 212.532L502.96 211.903C501.828 210.504 500.21 209.852 498.263 209.852V210.852V211.852C499.73 211.852 500.725 212.32 501.406 213.161L502.183 212.532ZM498.263 210.852V209.852C496.051 209.852 494.179 210.58 492.741 212.08L493.463 212.772L494.185 213.464C495.201 212.404 496.528 211.852 498.263 211.852V210.852ZM493.463 212.772L492.741 212.08C491.326 213.557 490.623 215.383 490.623 217.492H491.623H492.623C492.623 215.868 493.147 214.547 494.185 213.464L493.463 212.772ZM491.623 217.492H490.623V242.292H491.623H492.623V217.492H491.623ZM491.623 242.292V241.292H475.703V242.292V243.292H491.623V242.292ZM475.703 242.292H476.703V200.052H475.703H474.703V242.292H475.703ZM475.703 200.052V201.052H488.743V200.052V199.052H475.703V200.052ZM488.743 200.052L487.756 200.212L488.796 206.612L489.783 206.452L490.77 206.292L489.73 199.892L488.743 200.052ZM489.783 206.452L490.588 207.046C492.141 204.942 494.175 203.254 496.71 201.987L496.263 201.092L495.816 200.198C493.018 201.596 490.732 203.482 488.979 205.858L489.783 206.452ZM496.263 201.092L496.703 201.99C499.288 200.723 501.991 200.092 504.823 200.092V199.092V198.092C501.682 198.092 498.678 198.795 495.823 200.194L496.263 201.092ZM565.702 202.372L565.228 203.252L565.237 203.257L565.702 202.372ZM572.422 231.572L573.231 230.984L573.231 230.984L572.422 231.572ZM577.222 232.452H578.222V231.452H577.222V232.452ZM577.222 241.652L577.777 242.484L578.222 242.187V241.652H577.222ZM575.942 242.212L576.259 243.161L576.28 243.154L576.301 243.145L575.942 242.212ZM573.142 242.852L572.971 241.867L572.95 241.87L572.93 241.875L573.142 242.852ZM561.222 241.892L560.785 242.791L560.799 242.798L560.814 242.805L561.222 241.892ZM557.142 237.972L558.054 237.56L557.527 236.394L556.523 237.187L557.142 237.972ZM550.342 241.812L549.985 240.878V240.878L550.342 241.812ZM529.942 222.052L530.641 222.768L530.641 222.768L529.942 222.052ZM539.542 217.572L539.354 216.59V216.59L539.542 217.572ZM555.862 216.372V217.372H556.862V216.372H555.862ZM554.102 210.532L553.496 211.328L553.505 211.334L553.514 211.341L554.102 210.532ZM545.382 210.132L544.951 209.23L544.943 209.234L544.935 209.238L545.382 210.132ZM543.622 213.252V214.252H544.622V213.252H543.622ZM527.942 213.252L526.962 213.448L527.123 214.252H527.942V213.252ZM533.542 202.612L533.021 201.759L533.016 201.762L533.542 202.612ZM555.862 223.892H556.862V222.892H555.862V223.892ZM545.782 225.412L546.193 226.324L546.203 226.319L545.782 225.412ZM553.462 231.652L552.889 230.833L552.882 230.837L552.876 230.842L553.462 231.652ZM549.942 199.092V200.092C556.293 200.092 561.367 201.169 565.228 203.252L565.702 202.372L566.177 201.492C561.931 199.201 556.499 198.092 549.942 198.092V199.092ZM565.702 202.372L565.237 203.257C567.12 204.248 568.491 205.531 569.397 207.094C570.306 208.66 570.782 210.566 570.782 212.852H571.782H572.782C572.782 210.285 572.245 208.017 571.127 206.09C570.007 204.16 568.338 202.629 566.168 201.487L565.702 202.372ZM571.782 212.852H570.782V229.332H571.782H572.782V212.852H571.782ZM571.782 229.332H570.782C570.782 230.397 571.035 231.364 571.614 232.16L572.422 231.572L573.231 230.984C572.957 230.607 572.782 230.081 572.782 229.332H571.782ZM572.422 231.572L571.614 232.16C572.263 233.054 573.233 233.452 574.342 233.452V232.452V231.452C573.745 231.452 573.435 231.264 573.231 230.984L572.422 231.572ZM574.342 232.452V233.452H577.222V232.452V231.452H574.342V232.452ZM577.222 232.452H576.222V241.652H577.222H578.222V232.452H577.222ZM577.222 241.652L576.668 240.82C576.669 240.819 576.595 240.862 576.382 240.956C576.188 241.041 575.923 241.148 575.583 241.279L575.942 242.212L576.301 243.145C576.655 243.009 576.951 242.89 577.183 242.788C577.396 242.695 577.616 242.591 577.777 242.484L577.222 241.652ZM575.942 242.212L575.626 241.263C575.058 241.453 574.182 241.656 572.971 241.867L573.142 242.852L573.314 243.837C574.556 243.621 575.547 243.398 576.259 243.161L575.942 242.212ZM573.142 242.852L572.93 241.875C571.789 242.123 570.449 242.252 568.902 242.252V243.252V244.252C570.555 244.252 572.042 244.115 573.355 243.829L573.142 242.852ZM568.902 243.252V242.252C565.898 242.252 563.489 241.811 561.631 240.979L561.222 241.892L560.814 242.805C563.009 243.787 565.72 244.252 568.902 244.252V243.252ZM561.222 241.892L561.66 240.993C559.851 240.113 558.685 238.959 558.054 237.56L557.142 237.972L556.231 238.384C557.093 240.292 558.647 241.751 560.785 242.791L561.222 241.892ZM557.142 237.972L556.523 237.187C554.579 238.722 552.401 239.953 549.985 240.878L550.342 241.812L550.7 242.746C553.297 241.751 555.653 240.422 557.762 238.757L557.142 237.972ZM550.342 241.812L549.985 240.878C547.617 241.785 544.81 242.252 541.542 242.252V243.252V244.252C544.995 244.252 548.055 243.759 550.7 242.746L550.342 241.812ZM541.542 243.252V242.252C536.688 242.252 533.233 241.282 531.005 239.51C528.821 237.772 527.662 235.136 527.662 231.412H526.662H525.662C525.662 235.581 526.984 238.866 529.76 241.075C532.492 243.249 536.477 244.252 541.542 244.252V243.252ZM526.662 231.412H527.662C527.662 227.479 528.706 224.655 530.641 222.768L529.942 222.052L529.244 221.336C526.805 223.716 525.662 227.132 525.662 231.412H526.662ZM529.942 222.052L530.641 222.768C532.699 220.758 535.697 219.33 539.731 218.554L539.542 217.572L539.354 216.59C535.067 217.414 531.666 218.973 529.244 221.337L529.942 222.052ZM539.542 217.572L539.731 218.554C543.804 217.771 549.174 217.372 555.862 217.372V216.372V215.372C549.111 215.372 543.601 215.773 539.354 216.59L539.542 217.572ZM555.862 216.372H556.862V214.292H555.862H554.862V216.372H555.862ZM555.862 214.292H556.862C556.862 212.37 556.162 210.793 554.691 209.723L554.102 210.532L553.514 211.341C554.39 211.978 554.862 212.907 554.862 214.292H555.862ZM554.102 210.532L554.708 209.737C553.37 208.717 551.671 208.252 549.702 208.252V209.252V210.252C551.36 210.252 552.595 210.641 553.496 211.328L554.102 210.532ZM549.702 209.252V208.252C547.931 208.252 546.338 208.566 544.951 209.23L545.382 210.132L545.814 211.034C546.88 210.524 548.167 210.252 549.702 210.252V209.252ZM545.382 210.132L544.935 209.238C544.216 209.597 543.624 210.091 543.216 210.74C542.807 211.39 542.622 212.135 542.622 212.932H543.622H544.622C544.622 212.449 544.731 212.087 544.909 211.804C545.088 211.52 545.375 211.254 545.83 211.027L545.382 210.132ZM543.622 212.932H542.622V213.252H543.622H544.622V212.932H543.622ZM543.622 213.252V212.252H527.942V213.252V214.252H543.622V213.252ZM527.942 213.252L528.923 213.056C528.889 212.885 528.862 212.588 528.862 212.132H527.862H526.862C526.862 212.636 526.889 213.086 526.962 213.448L527.942 213.252ZM527.862 212.132H528.862C528.862 208.523 530.537 205.651 534.069 203.462L533.542 202.612L533.016 201.762C528.975 204.266 526.862 207.741 526.862 212.132H527.862ZM533.542 202.612L534.064 203.465C537.681 201.255 542.936 200.092 549.942 200.092V199.092V198.092C542.762 198.092 537.084 199.276 533.021 201.759L533.542 202.612ZM555.862 223.892V222.892C551.29 222.892 547.751 223.398 545.362 224.505L545.782 225.412L546.203 226.319C548.187 225.4 551.368 224.892 555.862 224.892V223.892ZM545.782 225.412L545.372 224.5C543.053 225.544 541.582 227.125 541.582 229.332H542.582H543.582C543.582 228.233 544.245 227.201 546.193 226.324L545.782 225.412ZM542.582 229.332H541.582C541.582 230.917 542.138 232.246 543.35 233.138C544.505 233.987 546.116 234.332 548.022 234.332V233.332V232.332C546.302 232.332 545.193 232.011 544.535 231.526C543.934 231.084 543.582 230.414 543.582 229.332H542.582ZM548.022 233.332V234.332C550.293 234.332 552.316 233.717 554.049 232.462L553.462 231.652L552.876 230.842C551.515 231.827 549.912 232.332 548.022 232.332V233.332ZM553.462 231.652L554.036 232.471C555.848 231.203 556.862 229.534 556.862 227.492H555.862H554.862C554.862 228.757 554.277 229.861 552.889 230.833L553.462 231.652ZM555.862 227.492H556.862V223.892H555.862H554.862V227.492H555.862ZM622.582 203.172L621.839 203.842L622.582 203.172ZM626.262 242.292V243.292H627.262V242.292H626.262ZM610.342 242.292H609.342V243.292H610.342V242.292ZM608.902 212.532L608.125 213.161L608.141 213.182L608.159 213.201L608.902 212.532ZM598.342 242.292V243.292H599.342V242.292H598.342ZM582.422 242.292H581.422V243.292H582.422V242.292ZM582.422 200.052V199.052H581.422V200.052H582.422ZM595.462 200.052L596.449 199.892L596.312 199.052H595.462V200.052ZM596.502 206.452L595.515 206.612L595.896 208.957L597.306 207.046L596.502 206.452ZM602.982 201.092L602.542 200.194L602.535 200.198L602.982 201.092ZM611.542 199.092V200.092C616.266 200.092 619.634 201.397 621.839 203.842L622.582 203.172L623.324 202.502C620.623 199.507 616.631 198.092 611.542 198.092V199.092ZM622.582 203.172L621.839 203.842C624.071 206.316 625.262 209.961 625.262 214.932H626.262H627.262C627.262 209.663 625.999 205.468 623.324 202.502L622.582 203.172ZM626.262 214.932H625.262V242.292H626.262H627.262V214.932H626.262ZM626.262 242.292V241.292H610.342V242.292V243.292H626.262V242.292ZM610.342 242.292H611.342V216.852H610.342H609.342V242.292H610.342ZM610.342 216.852H611.342C611.342 214.859 610.811 213.158 609.645 211.863L608.902 212.532L608.159 213.201C608.913 214.039 609.342 215.218 609.342 216.852H610.342ZM608.902 212.532L609.679 211.903C608.547 210.504 606.928 209.852 604.982 209.852V210.852V211.852C606.449 211.852 607.444 212.32 608.125 213.161L608.902 212.532ZM604.982 210.852V209.852C602.77 209.852 600.897 210.58 599.46 212.08L600.182 212.772L600.904 213.464C601.92 212.404 603.247 211.852 604.982 211.852V210.852ZM600.182 212.772L599.46 212.08C598.045 213.557 597.342 215.383 597.342 217.492H598.342H599.342C599.342 215.868 599.866 214.547 600.904 213.464L600.182 212.772ZM598.342 217.492H597.342V242.292H598.342H599.342V217.492H598.342ZM598.342 242.292V241.292H582.422V242.292V243.292H598.342V242.292ZM582.422 242.292H583.422V200.052H582.422H581.422V242.292H582.422ZM582.422 200.052V201.052H595.462V200.052V199.052H582.422V200.052ZM595.462 200.052L594.475 200.212L595.515 206.612L596.502 206.452L597.489 206.292L596.449 199.892L595.462 200.052ZM596.502 206.452L597.306 207.046C598.859 204.942 600.893 203.254 603.429 201.987L602.982 201.092L602.535 200.198C599.737 201.596 597.451 203.482 595.697 205.858L596.502 206.452ZM602.982 201.092L603.422 201.99C606.007 200.723 608.71 200.092 611.542 200.092V199.092V198.092C608.4 198.092 605.397 198.795 602.542 200.194L602.982 201.092ZM674.421 203.572L673.848 204.391L673.854 204.395L673.859 204.399L674.421 203.572ZM680.901 217.092V218.092H681.901V217.092H680.901ZM665.461 217.092H664.461V218.092H665.461V217.092ZM666.101 225.092V224.092H665.101V225.092H666.101ZM680.901 225.092H681.901V224.092H680.901V225.092ZM674.421 238.772L673.853 237.95L673.848 237.953L674.421 238.772ZM640.181 237.652L639.518 238.401V238.401L640.181 237.652ZM640.181 204.692L639.518 203.944V203.944L640.181 204.692ZM657.621 199.092V200.092C664.416 200.092 669.797 201.556 673.848 204.391L674.421 203.572L674.995 202.753C670.512 199.615 664.693 198.092 657.621 198.092V199.092ZM674.421 203.572L673.859 204.399C677.857 207.114 679.901 211.28 679.901 217.092H680.901H681.901C681.901 210.744 679.625 205.897 674.983 202.745L674.421 203.572ZM680.901 217.092V216.092H665.461V217.092V218.092H680.901V217.092ZM665.461 217.092H666.461C666.461 214.515 665.756 212.405 664.178 210.956C662.616 209.521 660.369 208.892 657.621 208.892V209.892V210.892C660.1 210.892 661.773 211.463 662.825 212.429C663.86 213.379 664.461 214.869 664.461 217.092H665.461ZM657.621 209.892V208.892C654.814 208.892 652.537 209.708 650.986 211.497C649.458 213.259 648.781 215.797 648.781 218.932H649.781H650.781C650.781 216.041 651.411 214.059 652.497 212.807C653.559 211.583 655.202 210.892 657.621 210.892V209.892ZM649.781 218.932H648.781V223.492H649.781H650.781V218.932H649.781ZM649.781 223.492H648.781C648.781 226.611 649.489 229.137 651.082 230.885C652.691 232.652 655.042 233.452 657.941 233.452V232.452V231.452C655.401 231.452 653.672 230.759 652.561 229.539C651.433 228.301 650.781 226.347 650.781 223.492H649.781ZM657.941 232.452V233.452C660.791 233.452 663.116 232.812 664.731 231.355C666.366 229.88 667.101 227.728 667.101 225.092H666.101H665.101C665.101 227.363 664.476 228.891 663.391 229.87C662.287 230.866 660.531 231.452 657.941 231.452V232.452ZM666.101 225.092V226.092H680.901V225.092V224.092H666.101V225.092ZM680.901 225.092H679.901C679.901 230.96 677.854 235.183 673.853 237.95L674.421 238.772L674.99 239.595C679.628 236.388 681.901 231.49 681.901 225.092H680.901ZM674.421 238.772L673.848 237.953C669.797 240.789 664.416 242.252 657.621 242.252V243.252V244.252C664.693 244.252 670.512 242.729 674.995 239.591L674.421 238.772ZM657.621 243.252V242.252C650.373 242.252 644.823 240.429 640.844 236.904L640.181 237.652L639.518 238.401C643.966 242.342 650.042 244.252 657.621 244.252V243.252ZM640.181 237.652L640.844 236.904C636.903 233.412 634.861 228.227 634.861 221.172H633.861H632.861C632.861 228.624 635.032 234.426 639.518 238.401L640.181 237.652ZM633.861 221.172H634.861C634.861 214.117 636.903 208.933 640.844 205.441L640.181 204.692L639.518 203.944C635.032 207.918 632.861 213.721 632.861 221.172H633.861ZM640.181 204.692L640.844 205.441C644.823 201.915 650.373 200.092 657.621 200.092V199.092V198.092C650.042 198.092 643.966 200.003 639.518 203.944L640.181 204.692ZM728.661 204.532L727.994 205.277L727.999 205.282L728.661 204.532ZM734.821 223.892V224.892H735.821V223.892H734.821ZM703.141 223.892V222.892H702.141V223.892H703.141ZM705.141 230.772L704.383 231.425L704.39 231.432L704.396 231.44L705.141 230.772ZM717.461 231.412L716.802 230.66L716.794 230.666L716.786 230.674L717.461 231.412ZM719.381 226.932V225.932H718.381V226.932H719.381ZM734.821 226.932H735.821V225.932H734.821V226.932ZM728.981 238.932L728.386 238.128V238.128L728.981 238.932ZM693.701 237.812L693.052 238.573L693.058 238.578L693.701 237.812ZM693.541 204.692L692.877 203.944V203.944L693.541 204.692ZM703.221 216.372L702.228 216.249L702.089 217.372H703.221V216.372ZM718.741 216.372V217.372H719.741V216.372H718.741ZM716.821 211.172L716.099 211.864L716.106 211.872L716.113 211.879L716.821 211.172ZM710.981 199.092V200.092C718.571 200.092 724.188 201.872 727.994 205.277L728.661 204.532L729.327 203.787C725.026 199.938 718.857 198.092 710.981 198.092V199.092ZM728.661 204.532L727.999 205.282C731.82 208.657 733.821 213.883 733.821 221.172H734.821H735.821C735.821 213.527 733.714 207.661 729.323 203.783L728.661 204.532ZM734.821 221.172H733.821V223.892H734.821H735.821V221.172H734.821ZM734.821 223.892V222.892H703.141V223.892V224.892H734.821V223.892ZM703.141 223.892H702.141C702.141 227.058 702.832 229.626 704.383 231.425L705.141 230.772L705.898 230.119C704.782 228.825 704.141 226.806 704.141 223.892H703.141ZM705.141 230.772L704.396 231.44C706.04 233.274 708.524 234.092 711.621 234.092V233.092V232.092C708.851 232.092 707.014 231.364 705.885 230.105L705.141 230.772ZM711.621 233.092V234.092C714.393 234.092 716.64 233.515 718.135 232.151L717.461 231.412L716.786 230.674C715.828 231.549 714.181 232.092 711.621 232.092V233.092ZM717.461 231.412L718.119 232.165C719.639 230.835 720.381 229.056 720.381 226.932H719.381H718.381C718.381 228.542 717.842 229.749 716.802 230.66L717.461 231.412ZM719.381 226.932V227.932H734.821V226.932V225.932H719.381V226.932ZM734.821 226.932H733.821C733.821 231.756 732.008 235.449 728.386 238.128L728.981 238.932L729.575 239.736C733.74 236.655 735.821 232.348 735.821 226.932H734.821ZM728.981 238.932L728.386 238.128C724.735 240.829 719.302 242.252 711.941 242.252V243.252V244.252C719.512 244.252 725.439 242.796 729.575 239.736L728.981 238.932ZM711.941 243.252V242.252C704.245 242.252 698.424 240.472 694.344 237.046L693.701 237.812L693.058 238.578C697.617 242.406 703.956 244.252 711.941 244.252V243.252ZM693.701 237.812L694.349 237.051C690.316 233.615 688.221 228.388 688.221 221.172H687.221H686.221C686.221 228.783 688.445 234.649 693.052 238.573L693.701 237.812ZM687.221 221.172H688.221C688.221 214.117 690.263 208.933 694.204 205.441L693.541 204.692L692.877 203.944C688.392 207.918 686.221 213.721 686.221 221.172H687.221ZM693.541 204.692L694.204 205.441C698.183 201.915 703.733 200.092 710.981 200.092V199.092V198.092C703.402 198.092 697.325 200.003 692.877 203.944L693.541 204.692ZM711.621 209.252V208.252C708.964 208.252 706.751 208.881 705.114 210.269C703.47 211.663 702.543 213.705 702.228 216.249L703.221 216.372L704.213 216.495C704.485 214.293 705.251 212.775 706.407 211.795C707.57 210.809 709.264 210.252 711.621 210.252V209.252ZM703.221 216.372V217.372H718.741V216.372V215.372H703.221V216.372ZM718.741 216.372H719.741C719.741 213.979 719.033 211.97 717.528 210.465L716.821 211.172L716.113 211.879C717.168 212.934 717.741 214.392 717.741 216.372H718.741ZM716.821 211.172L717.543 210.48C716.08 208.954 714.057 208.252 711.621 208.252V209.252V210.252C713.664 210.252 715.107 210.83 716.099 211.864L716.821 211.172ZM743.62 187.252V186.252H742.62V187.252H743.62ZM788.1 187.252H789.1V186.252H788.1V187.252ZM788.1 200.452V201.452H789.1V200.452H788.1ZM761.3 200.452V199.452H760.3V200.452H761.3ZM761.3 209.892H760.3V210.892H761.3V209.892ZM784.34 209.892H785.34V208.892H784.34V209.892ZM784.34 222.532V223.532H785.34V222.532H784.34ZM761.3 222.532V221.532H760.3V222.532H761.3ZM761.3 242.292V243.292H762.3V242.292H761.3ZM743.62 242.292H742.62V243.292H743.62V242.292ZM743.62 187.252V188.252H788.1V187.252V186.252H743.62V187.252ZM788.1 187.252H787.1V200.452H788.1H789.1V187.252H788.1ZM788.1 200.452V199.452H761.3V200.452V201.452H788.1V200.452ZM761.3 200.452H760.3V209.892H761.3H762.3V200.452H761.3ZM761.3 209.892V210.892H784.34V209.892V208.892H761.3V209.892ZM784.34 209.892H783.34V222.532H784.34H785.34V209.892H784.34ZM784.34 222.532V221.532H761.3V222.532V223.532H784.34V222.532ZM761.3 222.532H760.3V242.292H761.3H762.3V222.532H761.3ZM761.3 242.292V241.292H743.62V242.292V243.292H761.3V242.292ZM743.62 242.292H744.62V187.252H743.62H742.62V242.292H743.62ZM797.044 242.292H796.044V243.292H797.044V242.292ZM797.044 184.292V183.292H796.044V184.292H797.044ZM812.964 184.292H813.964V183.292H812.964V184.292ZM812.964 242.292V243.292H813.964V242.292H812.964ZM797.044 242.292H798.044V184.292H797.044H796.044V242.292H797.044ZM797.044 184.292V185.292H812.964V184.292V183.292H797.044V184.292ZM812.964 184.292H811.964V242.292H812.964H813.964V184.292H812.964ZM812.964 242.292V241.292H797.044V242.292V243.292H812.964V242.292ZM862.405 204.772L861.736 205.516L861.746 205.525L862.405 204.772ZM862.405 237.652L863.068 238.401L863.069 238.4L862.405 237.652ZM827.525 237.652L826.862 238.401V238.401L827.525 237.652ZM827.525 204.692L826.862 203.944V203.944L827.525 204.692ZM844.965 199.092V200.092C852.209 200.092 857.757 201.94 861.737 205.516L862.405 204.772L863.073 204.028C858.626 200.031 852.547 198.092 844.965 198.092V199.092ZM862.405 204.772L861.746 205.525C865.74 209.019 867.805 214.177 867.805 221.172H868.805H869.805C869.805 213.767 867.603 207.992 863.063 204.02L862.405 204.772ZM868.805 221.172H867.805C867.805 228.167 865.74 233.355 861.741 236.904L862.405 237.652L863.069 238.4C867.603 234.376 869.805 228.578 869.805 221.172H868.805ZM862.405 237.652L861.742 236.904C857.763 240.429 852.213 242.252 844.965 242.252V243.252V244.252C852.544 244.252 858.62 242.342 863.068 238.401L862.405 237.652ZM844.965 243.252V242.252C837.717 242.252 832.167 240.429 828.188 236.904L827.525 237.652L826.862 238.401C831.31 242.342 837.386 244.252 844.965 244.252V243.252ZM827.525 237.652L828.188 236.904C824.247 233.412 822.205 228.227 822.205 221.172H821.205H820.205C820.205 228.624 822.376 234.426 826.862 238.401L827.525 237.652ZM821.205 221.172H822.205C822.205 214.117 824.247 208.933 828.188 205.441L827.525 204.692L826.862 203.944C822.376 207.918 820.205 213.721 820.205 221.172H821.205ZM827.525 204.692L828.188 205.441C832.167 201.915 837.717 200.092 844.965 200.092V199.092V198.092C837.386 198.092 831.31 200.003 826.862 203.944L827.525 204.692ZM844.965 209.892V208.892C842.157 208.892 839.881 209.708 838.329 211.497C836.802 213.259 836.125 215.797 836.125 218.932H837.125H838.125C838.125 216.041 838.755 214.059 839.84 212.807C840.902 211.583 842.546 210.892 844.965 210.892V209.892ZM837.125 218.932H836.125V223.492H837.125H838.125V218.932H837.125ZM837.125 223.492H836.125C836.125 226.603 836.802 229.122 838.332 230.871C839.885 232.645 842.16 233.452 844.965 233.452V232.452V231.452C842.543 231.452 840.899 230.766 839.838 229.554C838.754 228.315 838.125 226.355 838.125 223.492H837.125ZM844.965 232.452V233.452C847.793 233.452 850.088 232.646 851.654 230.874C853.2 229.126 853.885 226.605 853.885 223.492H852.885H851.885C851.885 226.353 851.25 228.312 850.156 229.55C849.082 230.764 847.417 231.452 844.965 231.452V232.452ZM852.885 223.492H853.885V218.932H852.885H851.885V223.492H852.885ZM852.885 218.932H853.885C853.885 215.795 853.201 213.255 851.657 211.493C850.091 209.706 847.796 208.892 844.965 208.892V209.892V210.892C847.414 210.892 849.078 211.585 850.153 212.811C851.249 214.063 851.885 216.043 851.885 218.932H852.885ZM914.758 242.292L913.795 242.561L913.999 243.292H914.758V242.292ZM908.198 218.772L909.161 218.503L908.957 217.772H908.198V218.772ZM907.878 218.772V217.772H907.121L906.916 218.5L907.878 218.772ZM901.238 242.292V243.292H901.995L902.2 242.564L901.238 242.292ZM885.718 242.292L884.779 242.635L885.019 243.292H885.718V242.292ZM870.278 200.052V199.052H868.848L869.339 200.395L870.278 200.052ZM887.398 200.052L888.367 199.804L888.174 199.052H887.398V200.052ZM893.798 225.012L892.829 225.26L893.022 226.012H893.798V225.012ZM894.358 225.012V226.012H895.127L895.324 225.269L894.358 225.012ZM900.998 200.052V199.052H900.229L900.032 199.795L900.998 200.052ZM916.838 200.052L917.807 199.804L917.614 199.052H916.838V200.052ZM923.238 225.012L922.269 225.26L922.462 226.012H923.238V225.012ZM923.798 225.012V226.012H924.572L924.766 225.263L923.798 225.012ZM930.278 200.052V199.052H929.505L929.31 199.801L930.278 200.052ZM945.798 200.052L946.737 200.397L947.231 199.052H945.798V200.052ZM930.278 242.292V243.292H930.976L931.217 242.637L930.278 242.292ZM914.758 242.292L915.721 242.023L909.161 218.503L908.198 218.772L907.235 219.041L913.795 242.561L914.758 242.292ZM908.198 218.772V217.772H907.878V218.772V219.772H908.198V218.772ZM907.878 218.772L906.916 218.5L900.276 242.02L901.238 242.292L902.2 242.564L908.84 219.044L907.878 218.772ZM901.238 242.292V241.292H885.718V242.292V243.292H901.238V242.292ZM885.718 242.292L886.657 241.949L871.217 199.709L870.278 200.052L869.339 200.395L884.779 242.635L885.718 242.292ZM870.278 200.052V201.052H887.398V200.052V199.052H870.278V200.052ZM887.398 200.052L886.429 200.3L892.829 225.26L893.798 225.012L894.767 224.764L888.367 199.804L887.398 200.052ZM893.798 225.012V226.012H894.358V225.012V224.012H893.798V225.012ZM894.358 225.012L895.324 225.269L901.964 200.309L900.998 200.052L900.032 199.795L893.392 224.755L894.358 225.012ZM900.998 200.052V201.052H916.838V200.052V199.052H900.998V200.052ZM916.838 200.052L915.869 200.3L922.269 225.26L923.238 225.012L924.207 224.764L917.807 199.804L916.838 200.052ZM923.238 225.012V226.012H923.798V225.012V224.012H923.238V225.012ZM923.798 225.012L924.766 225.263L931.246 200.303L930.278 200.052L929.31 199.801L922.83 224.761L923.798 225.012ZM930.278 200.052V201.052H945.798V200.052V199.052H930.278V200.052ZM945.798 200.052L944.859 199.707L929.339 241.947L930.278 242.292L931.217 242.637L946.737 200.397L945.798 200.052ZM930.278 242.292V241.292H914.758V242.292V243.292H930.278V242.292Z" fill="black" mask="url(#path-4-outside-1_3_3)"/>
</svg>
