<svg xmlns="http://www.w3.org/2000/svg" xmlns:xlink="http://www.w3.org/1999/xlink" width="50" zoomAndPan="magnify" viewBox="0 0 37.5 37.499999" height="50" preserveAspectRatio="xMidYMid meet" version="1.0"><defs><clipPath id="2abc9ea1f3"><path d="M 3.699219 12 L 26 12 L 26 30.253906 L 3.699219 30.253906 Z M 3.699219 12 " clip-rule="nonzero"/></clipPath><clipPath id="ca9c037377"><path d="M 12 6.570312 L 33.304688 6.570312 L 33.304688 25 L 12 25 Z M 12 6.570312 " clip-rule="nonzero"/></clipPath></defs><g clip-path="url(#2abc9ea1f3)"><path fill="#ffffff" d="M 24.679688 25.578125 C 24.433594 25.253906 23.980469 25.1875 23.65625 25.425781 C 22.179688 26.507812 20.433594 27.078125 18.601562 27.078125 C 16.445312 27.078125 14.386719 26.273438 12.796875 24.804688 C 11.320312 23.4375 10.375 21.617188 10.113281 19.640625 L 12.300781 19.640625 C 12.578125 19.640625 12.828125 19.484375 12.957031 19.238281 C 13.082031 18.992188 13.058594 18.695312 12.898438 18.472656 L 9.085938 13.195312 C 8.949219 13.007812 8.730469 12.894531 8.496094 12.890625 C 8.261719 12.890625 8.042969 12.996094 7.902344 13.183594 L 3.917969 18.460938 C 3.75 18.683594 3.722656 18.984375 3.847656 19.234375 C 3.972656 19.484375 4.226562 19.640625 4.503906 19.640625 C 4.503906 19.640625 4.503906 19.640625 4.507812 19.640625 L 6.738281 19.640625 C 7.316406 25.722656 12.464844 30.4375 18.609375 30.4375 C 21.164062 30.4375 23.601562 29.636719 25.664062 28.121094 C 25.824219 28.003906 25.929688 27.828125 25.957031 27.632812 C 25.984375 27.4375 25.933594 27.238281 25.816406 27.082031 Z M 24.679688 25.578125 " fill-opacity="1" fill-rule="nonzero"/></g><g clip-path="url(#ca9c037377)"><path fill="#ffffff" d="M 33.15625 17.769531 C 33.03125 17.523438 32.777344 17.367188 32.5 17.367188 L 30.476562 17.367188 C 29.898438 11.285156 24.753906 6.566406 18.601562 6.566406 C 16.652344 6.566406 14.707031 7.058594 12.972656 7.988281 C 12.785156 8.089844 12.652344 8.265625 12.605469 8.472656 C 12.558594 8.679688 12.601562 8.898438 12.726562 9.070312 L 13.839844 10.609375 C 14.050781 10.902344 14.441406 11 14.765625 10.835938 C 15.949219 10.242188 17.28125 9.925781 18.613281 9.925781 C 20.769531 9.925781 22.832031 10.734375 24.417969 12.203125 C 25.894531 13.566406 26.839844 15.390625 27.101562 17.367188 L 24.707031 17.363281 C 24.425781 17.363281 24.171875 17.523438 24.046875 17.773438 C 23.921875 18.023438 23.949219 18.320312 24.121094 18.542969 L 28.101562 23.820312 C 28.242188 24.003906 28.460938 24.113281 28.691406 24.113281 C 28.691406 24.113281 28.695312 24.113281 28.699219 24.113281 C 28.929688 24.109375 29.148438 23.996094 29.285156 23.808594 L 33.097656 18.535156 C 33.261719 18.308594 33.28125 18.015625 33.15625 17.769531 Z M 33.15625 17.769531 " fill-opacity="1" fill-rule="nonzero"/></g></svg>