<svg xmlns="http://www.w3.org/2000/svg" xmlns:xlink="http://www.w3.org/1999/xlink" width="50" zoomAndPan="magnify" viewBox="0 0 37.5 37.499999" height="50" preserveAspectRatio="xMidYMid meet" version="1.0"><defs><clipPath id="0b19a15c19"><path d="M 7 27 L 15 27 L 15 29.125 L 7 29.125 Z M 7 27 " clip-rule="nonzero"/></clipPath><clipPath id="e77a8a2b43"><path d="M 16 7.660156 L 31 7.660156 L 31 12 L 16 12 Z M 16 7.660156 " clip-rule="nonzero"/></clipPath><clipPath id="b726e41903"><path d="M 32 18 L 33.304688 18 L 33.304688 22 L 32 22 Z M 32 18 " clip-rule="nonzero"/></clipPath><clipPath id="ab4fb0fa63"><path d="M 3.699219 15 L 5 15 L 5 19 L 3.699219 19 Z M 3.699219 15 " clip-rule="nonzero"/></clipPath></defs><path fill="#ffffff" d="M 17.699219 17.6875 C 17.8125 17.605469 17.945312 17.554688 18.097656 17.523438 L 18.097656 18.773438 C 18.097656 18.773438 18.09375 18.773438 18.089844 18.769531 C 17.984375 18.738281 17.878906 18.691406 17.773438 18.632812 C 17.667969 18.574219 17.582031 18.507812 17.523438 18.425781 C 17.464844 18.347656 17.433594 18.253906 17.433594 18.140625 C 17.4375 17.964844 17.527344 17.8125 17.699219 17.6875 Z M 17.699219 17.6875 " fill-opacity="1" fill-rule="nonzero"/><path fill="#ffffff" d="M 19.402344 20.324219 C 19.515625 20.4375 19.570312 20.585938 19.570312 20.769531 C 19.570312 21 19.46875 21.191406 19.261719 21.34375 C 19.148438 21.425781 19.019531 21.488281 18.867188 21.527344 L 18.867188 20.03125 C 18.90625 20.042969 18.941406 20.054688 18.972656 20.0625 C 19.148438 20.121094 19.292969 20.207031 19.402344 20.324219 Z M 19.402344 20.324219 " fill-opacity="1" fill-rule="nonzero"/><path fill="#ffffff" d="M 27.113281 15.167969 L 9.859375 15.167969 C 9.8125 15.398438 9.738281 15.617188 9.628906 15.820312 C 9.300781 16.457031 8.703125 16.929688 7.984375 17.089844 C 7.964844 17.097656 7.941406 17.097656 7.921875 17.105469 L 7.921875 21.996094 C 8.167969 22.042969 8.402344 22.128906 8.613281 22.242188 C 9.246094 22.585938 9.714844 23.203125 9.859375 23.929688 L 27.113281 23.929688 C 27.125 23.867188 27.144531 23.800781 27.160156 23.738281 C 27.238281 23.464844 27.363281 23.210938 27.519531 22.988281 C 27.878906 22.484375 28.421875 22.121094 29.046875 21.996094 L 29.046875 17.101562 C 28.074219 16.914062 27.304688 16.144531 27.113281 15.167969 Z M 20.410156 21.542969 C 20.242188 21.808594 19.988281 22.015625 19.660156 22.167969 C 19.425781 22.273438 19.164062 22.339844 18.867188 22.375 L 18.867188 22.929688 C 18.867188 23.140625 18.699219 23.3125 18.484375 23.3125 C 18.273438 23.3125 18.101562 23.140625 18.101562 22.929688 L 18.101562 22.375 C 17.730469 22.335938 17.410156 22.238281 17.144531 22.085938 C 16.894531 21.9375 16.691406 21.738281 16.535156 21.496094 C 16.378906 21.246094 16.304688 21.011719 16.304688 20.777344 C 16.304688 20.640625 16.351562 20.527344 16.445312 20.429688 C 16.539062 20.332031 16.65625 20.285156 16.800781 20.285156 C 16.917969 20.285156 17.019531 20.324219 17.097656 20.398438 C 17.179688 20.472656 17.25 20.582031 17.304688 20.730469 C 17.375 20.90625 17.449219 21.050781 17.53125 21.171875 C 17.613281 21.289062 17.726562 21.386719 17.875 21.460938 C 17.941406 21.496094 18.015625 21.519531 18.097656 21.542969 L 18.097656 19.832031 C 17.773438 19.75 17.5 19.652344 17.273438 19.546875 C 17.007812 19.425781 16.796875 19.253906 16.640625 19.039062 C 16.484375 18.828125 16.40625 18.558594 16.40625 18.242188 C 16.40625 17.941406 16.488281 17.675781 16.652344 17.4375 C 16.820312 17.203125 17.058594 17.023438 17.371094 16.894531 C 17.589844 16.808594 17.832031 16.75 18.101562 16.726562 L 18.101562 16.171875 C 18.101562 15.960938 18.273438 15.789062 18.484375 15.789062 C 18.699219 15.789062 18.867188 15.960938 18.867188 16.171875 L 18.867188 16.730469 C 19.042969 16.75 19.203125 16.785156 19.347656 16.835938 C 19.59375 16.917969 19.796875 17.027344 19.960938 17.167969 C 20.121094 17.304688 20.242188 17.449219 20.316406 17.605469 C 20.394531 17.757812 20.429688 17.90625 20.429688 18.050781 C 20.429688 18.183594 20.382812 18.300781 20.289062 18.410156 C 20.195312 18.515625 20.078125 18.570312 19.9375 18.570312 C 19.808594 18.570312 19.710938 18.535156 19.644531 18.472656 C 19.578125 18.414062 19.507812 18.304688 19.429688 18.160156 C 19.328125 17.953125 19.207031 17.792969 19.070312 17.675781 C 19.015625 17.632812 18.949219 17.59375 18.867188 17.570312 L 18.867188 18.976562 C 19.085938 19.035156 19.28125 19.09375 19.46875 19.160156 C 19.71875 19.246094 19.933594 19.351562 20.109375 19.476562 C 20.285156 19.601562 20.421875 19.761719 20.519531 19.953125 C 20.617188 20.144531 20.667969 20.375 20.667969 20.652344 C 20.667969 20.976562 20.582031 21.28125 20.410156 21.542969 Z M 20.410156 21.542969 " fill-opacity="1" fill-rule="nonzero"/><path fill="#ffffff" d="M 31.402344 12.46875 L 5.570312 12.46875 C 5.355469 12.46875 5.183594 12.640625 5.183594 12.855469 L 5.183594 26.246094 C 5.183594 26.460938 5.351562 26.632812 5.570312 26.632812 L 31.398438 26.632812 C 31.613281 26.632812 31.785156 26.460938 31.785156 26.246094 L 31.785156 12.855469 C 31.785156 12.640625 31.613281 12.46875 31.402344 12.46875 Z M 30 22.421875 C 30 22.6875 29.785156 22.898438 29.523438 22.898438 C 29.132812 22.898438 28.777344 23.050781 28.507812 23.292969 C 28.207031 23.566406 28.015625 23.964844 28.015625 24.402344 C 28.015625 24.664062 27.804688 24.878906 27.542969 24.878906 L 9.425781 24.878906 C 9.164062 24.878906 8.953125 24.664062 8.953125 24.402344 C 8.953125 23.710938 8.484375 23.125 7.847656 22.953125 C 7.71875 22.917969 7.582031 22.898438 7.445312 22.898438 C 7.183594 22.898438 6.96875 22.6875 6.96875 22.421875 L 6.96875 16.675781 C 6.96875 16.414062 7.183594 16.199219 7.445312 16.199219 C 8.226562 16.199219 8.871094 15.597656 8.941406 14.835938 C 8.949219 14.785156 8.949219 14.738281 8.949219 14.691406 C 8.949219 14.429688 9.160156 14.21875 9.425781 14.21875 L 27.539062 14.21875 C 27.800781 14.21875 28.011719 14.429688 28.011719 14.691406 C 28.011719 15.265625 28.332031 15.761719 28.804688 16.015625 C 29.015625 16.136719 29.261719 16.199219 29.519531 16.199219 C 29.734375 16.199219 29.910156 16.339844 29.972656 16.527344 L 29.976562 16.535156 C 29.988281 16.582031 29.996094 16.628906 29.996094 16.675781 L 29.996094 22.421875 Z M 30 22.421875 " fill-opacity="1" fill-rule="nonzero"/><g clip-path="url(#0b19a15c19)"><path fill="#ffffff" d="M 8.011719 27.230469 L 7.375 27.230469 L 7.96875 29.03125 C 8.039062 29.234375 8.253906 29.34375 8.457031 29.277344 L 14.652344 27.230469 Z M 8.011719 27.230469 " fill-opacity="1" fill-rule="nonzero"/></g><g clip-path="url(#e77a8a2b43)"><path fill="#ffffff" d="M 25.433594 10.601562 C 25.683594 10.519531 25.953125 10.65625 26.035156 10.902344 C 26.191406 11.378906 26.5625 11.722656 27.003906 11.863281 L 27.925781 11.863281 C 27.925781 11.863281 27.929688 11.859375 27.9375 11.859375 C 28.039062 11.824219 28.148438 11.828125 28.242188 11.863281 L 30.320312 11.863281 L 29.035156 7.972656 C 28.96875 7.773438 28.753906 7.660156 28.550781 7.726562 L 16.019531 11.867188 L 21.601562 11.867188 Z M 25.433594 10.601562 " fill-opacity="1" fill-rule="nonzero"/></g><g clip-path="url(#b726e41903)"><path fill="#ffffff" d="M 33.230469 20.691406 L 32.386719 18.136719 L 32.386719 21.378906 L 32.988281 21.183594 C 33.191406 21.113281 33.300781 20.894531 33.230469 20.691406 Z M 33.230469 20.691406 " fill-opacity="1" fill-rule="nonzero"/></g><g clip-path="url(#ab4fb0fa63)"><path fill="#ffffff" d="M 3.773438 16.316406 L 4.582031 18.765625 L 4.582031 15.640625 L 4.019531 15.828125 C 3.816406 15.894531 3.707031 16.113281 3.773438 16.316406 Z M 3.773438 16.316406 " fill-opacity="1" fill-rule="nonzero"/></g></svg>