<svg xmlns="http://www.w3.org/2000/svg" xmlns:xlink="http://www.w3.org/1999/xlink" width="50" zoomAndPan="magnify" viewBox="0 0 37.5 37.499999" height="50" preserveAspectRatio="xMidYMid meet" version="1.0"><defs><clipPath id="569f08de84"><path d="M 21.621094 0.710938 L 33.261719 0.710938 L 33.261719 13.910156 L 21.621094 13.910156 Z M 21.621094 0.710938 " clip-rule="nonzero"/></clipPath><clipPath id="6f4bed49c1"><path d="M 33.046875 7.691406 L 22.265625 13.851562 C 22.132812 13.925781 21.96875 13.925781 21.835938 13.847656 C 21.703125 13.773438 21.621094 13.632812 21.621094 13.476562 L 21.621094 1.167969 C 21.621094 1.015625 21.703125 0.875 21.835938 0.796875 C 21.96875 0.722656 22.132812 0.71875 22.265625 0.796875 L 33.046875 6.957031 C 33.175781 7.03125 33.257812 7.171875 33.257812 7.324219 C 33.257812 7.476562 33.175781 7.617188 33.046875 7.691406 Z M 33.046875 7.691406 " clip-rule="nonzero"/></clipPath><clipPath id="d7e6811434"><path d="M 0.621094 0.710938 L 12.261719 0.710938 L 12.261719 13.910156 L 0.621094 13.910156 Z M 0.621094 0.710938 " clip-rule="nonzero"/></clipPath><clipPath id="09fa7b0f47"><path d="M 12.046875 7.691406 L 1.265625 13.851562 C 1.132812 13.925781 0.96875 13.925781 0.835938 13.847656 C 0.703125 13.773438 0.621094 13.632812 0.621094 13.476562 L 0.621094 1.167969 C 0.621094 1.015625 0.703125 0.875 0.835938 0.796875 C 0.96875 0.722656 1.132812 0.71875 1.265625 0.796875 L 12.046875 6.957031 C 12.175781 7.03125 12.257812 7.171875 12.257812 7.324219 C 12.257812 7.476562 12.175781 7.617188 12.046875 7.691406 Z M 12.046875 7.691406 " clip-rule="nonzero"/></clipPath><clipPath id="83231c291b"><rect x="0" width="13" y="0" height="14"/></clipPath><clipPath id="adc30e0b70"><path d="M 3.707031 11.539062 L 14.96875 11.539062 L 14.96875 24.304688 L 3.707031 24.304688 Z M 3.707031 11.539062 " clip-rule="nonzero"/></clipPath><clipPath id="7b111e2a9e"><path d="M 3.9375 17.542969 L 14.324219 11.605469 C 14.457031 11.53125 14.621094 11.53125 14.753906 11.609375 C 14.886719 11.683594 14.96875 11.828125 14.96875 11.980469 L 14.96875 23.839844 C 14.96875 23.992188 14.886719 24.132812 14.753906 24.210938 C 14.621094 24.285156 14.457031 24.289062 14.324219 24.210938 L 3.9375 18.277344 C 3.808594 18.199219 3.726562 18.0625 3.726562 17.910156 C 3.726562 17.757812 3.808594 17.617188 3.9375 17.542969 Z M 3.9375 17.542969 " clip-rule="nonzero"/></clipPath><clipPath id="a3b2d1541c"><path d="M 0.707031 0.539062 L 11.96875 0.539062 L 11.96875 13.304688 L 0.707031 13.304688 Z M 0.707031 0.539062 " clip-rule="nonzero"/></clipPath><clipPath id="77f1ca7de9"><path d="M 0.9375 6.542969 L 11.324219 0.605469 C 11.457031 0.53125 11.621094 0.53125 11.753906 0.609375 C 11.886719 0.683594 11.96875 0.828125 11.96875 0.980469 L 11.96875 12.839844 C 11.96875 12.992188 11.886719 13.132812 11.753906 13.210938 C 11.621094 13.285156 11.457031 13.289062 11.324219 13.210938 L 0.9375 7.277344 C 0.808594 7.199219 0.726562 7.0625 0.726562 6.910156 C 0.726562 6.757812 0.808594 6.617188 0.9375 6.542969 Z M 0.9375 6.542969 " clip-rule="nonzero"/></clipPath><clipPath id="3501c437b6"><rect x="0" width="12" y="0" height="14"/></clipPath><clipPath id="0210af030d"><rect x="0" width="34" y="0" height="25"/></clipPath></defs><g transform="matrix(1, 0, 0, 1, 0.000000000000000111, 6)"><g clip-path="url(#0210af030d)"><path stroke-linecap="round" transform="matrix(-2.734875, 0.000000000000001357, -0.000000000000001357, -2.734875, 31.030123, 8.17624)" fill="none" stroke-linejoin="miter" d="M 0.499497 0.500076 L 9.652107 0.500076 " stroke="#d9d9d9" stroke-width="1" stroke-opacity="1" stroke-miterlimit="4"/><g clip-path="url(#569f08de84)"><g clip-path="url(#6f4bed49c1)"><g transform="matrix(1, 0, 0, 1, 21, -0.000000000000000888)"><g clip-path="url(#83231c291b)"><g clip-path="url(#d7e6811434)"><g clip-path="url(#09fa7b0f47)"><path fill="#ffffff" d="M 12.6875 0.429688 L 12.6875 14.238281 L 0.621094 14.238281 L 0.621094 0.429688 Z M 12.6875 0.429688 " fill-opacity="1" fill-rule="nonzero"/></g></g></g></g></g></g><path stroke-linecap="round" transform="matrix(2.734875, -0.000000000000002035, 0.000000000000002035, 2.734875, 5.859681, 16.040175)" fill="none" stroke-linejoin="miter" d="M 0.499796 0.499502 L 9.321039 0.499502 " stroke="#d9d9d9" stroke-width="1" stroke-opacity="1" stroke-miterlimit="4"/><g clip-path="url(#adc30e0b70)"><g clip-path="url(#7b111e2a9e)"><g transform="matrix(1, 0, 0, 1, 3, 11)"><g clip-path="url(#3501c437b6)"><g clip-path="url(#a3b2d1541c)"><g clip-path="url(#77f1ca7de9)"><path fill="#ffffff" d="M 0.296875 13.578125 L 0.296875 0.21875 L 11.96875 0.21875 L 11.96875 13.578125 Z M 0.296875 13.578125 " fill-opacity="1" fill-rule="nonzero"/></g></g></g></g></g></g></g></g></svg>