<svg xmlns="http://www.w3.org/2000/svg" xmlns:xlink="http://www.w3.org/1999/xlink" width="50" zoomAndPan="magnify" viewBox="0 0 37.5 37.499999" height="50" preserveAspectRatio="xMidYMid meet" version="1.0"><defs><clipPath id="9a5a8cce3a"><path d="M 3.699219 6.847656 L 32 6.847656 L 32 10 L 3.699219 10 Z M 3.699219 6.847656 " clip-rule="nonzero"/></clipPath><clipPath id="6f7196c879"><path d="M 26 17 L 33.304688 17 L 33.304688 23 L 26 23 Z M 26 17 " clip-rule="nonzero"/></clipPath><clipPath id="8ba10cc33f"><path d="M 3.699219 8 L 33 8 L 33 30.53125 L 3.699219 30.53125 Z M 3.699219 8 " clip-rule="nonzero"/></clipPath></defs><g clip-path="url(#9a5a8cce3a)"><path fill="#ffffff" d="M 5.078125 9.210938 L 29.648438 9.210938 C 29.6875 8.824219 29.480469 8.503906 29.082031 8.457031 L 5.261719 8.433594 C 5 8.320312 5.003906 8.058594 5.261719 7.945312 C 8.042969 7.902344 10.835938 7.921875 13.617188 7.917969 C 14.238281 7.917969 14.914062 8.070312 15.546875 7.917969 C 20.152344 7.984375 24.78125 7.800781 29.367188 8.011719 C 29.875 8.15625 30.128906 8.714844 30.074219 9.210938 L 31.148438 9.316406 L 31.148438 8.484375 C 31.148438 7.640625 30.15625 6.863281 29.351562 6.847656 L 5.613281 6.847656 C 4.753906 6.832031 3.386719 7.742188 4.109375 8.675781 C 4.273438 8.882812 4.828125 9.210938 5.078125 9.210938 Z M 5.078125 9.210938 " fill-opacity="1" fill-rule="nonzero"/></g><g clip-path="url(#6f7196c879)"><path fill="#ffffff" d="M 33.246094 18.363281 C 33.203125 17.898438 32.957031 17.558594 32.46875 17.53125 C 30.921875 17.660156 29.105469 17.359375 27.59375 17.550781 C 27.101562 17.609375 26.609375 17.957031 26.535156 18.480469 C 26.46875 18.972656 26.46875 20.605469 26.535156 21.101562 C 26.613281 21.65625 27.160156 22 27.683594 22.046875 C 29.191406 22.175781 30.882812 21.945312 32.410156 22.042969 C 32.890625 21.996094 33.1875 21.761719 33.246094 21.265625 C 33.320312 20.589844 33.308594 19.054688 33.246094 18.363281 Z M 28.714844 20.898438 C 27.363281 20.855469 27.242188 18.875 28.558594 18.675781 C 30.15625 18.433594 30.300781 20.945312 28.714844 20.898438 Z M 28.714844 20.898438 " fill-opacity="1" fill-rule="nonzero"/></g><g clip-path="url(#8ba10cc33f)"><path fill="#ffffff" d="M 26.167969 21.578125 C 25.910156 20.96875 25.898438 18.648438 26.15625 18.042969 C 26.3125 17.664062 26.941406 17.050781 27.363281 17.050781 L 32.386719 17.050781 L 32.386719 11.4375 C 32.386719 10.683594 31.390625 9.769531 30.640625 9.75 L 5.398438 9.75 C 4.734375 9.691406 4.160156 9.488281 3.710938 8.996094 L 3.710938 28.515625 C 3.710938 29.28125 4.800781 30.171875 5.5625 30.152344 L 30.375 30.15625 C 31.222656 30.222656 32.386719 29.253906 32.386719 28.410156 L 32.386719 22.527344 L 27.363281 22.527344 C 26.96875 22.527344 26.324219 21.9375 26.167969 21.578125 Z M 26.167969 21.578125 " fill-opacity="1" fill-rule="nonzero"/></g></svg>